# xmcd CD database file
#
# Track frame offsets:
#	150
#	24637
#	50415
#	71317
#	80470
#	104180
#	133852
#	147002
#	168155
#	193745
#	201327
#	225432
#	233312
#
# Disc length: 3329 seconds
#
# Revision: 1
# Processed by: cddbd v1.4PL0 Copyright (c) Steve Scherf et al.
# Submitted via: CDex 1.50beta10
#
DISCID=ac0cff0d
DTITLE=Marcos Ariel - Enchanted Falls
DYEAR=2001
DGENRE=New Age
TTITLE0=Santa Clara Falls
TTITLE1=Mountain Ride
TTITLE2=Visconde de Mauá
TTITLE3=Peaceful Rain
TTITLE4=Forest Angels
TTITLE5=Morning Dew
TTITLE6=Flowers Valley
TTITLE7=Alice In Wanderland
TTITLE8=Moon Light Reflection
TTITLE9=Mantiqueira (Rest Of The Waters )
TTITLE10=Twelve Falls Trail
TTITLE11=Onyx River
TTITLE12=Celestial Springs
EXTD=YEAR: 2001
EXTT0=
EXTT1=
EXTT2=
EXTT3=
EXTT4=
EXTT5=
EXTT6=
EXTT7=
EXTT8=
EXTT9=
EXTT10=
EXTT11=
EXTT12=
PLAYORDER=
